#!OML:ASF I:\Actors\actors\Patient Classification 1\Patient 1\Session 1\Subject1.ASF
:FULLY-SPECIFIED
:DEGREES
227
root -0.536328 17.5896 8.06277 4.52379 -18.1419 -5.24889
lowerback -1.19097 -2.13662 5.15377
upperback -12.133 -2.28312 4.72568
thorax -12.4638 -1.38133 2.51975
lowerneck -9.39212 0.989966 4.77567
upperneck 29.2928 -3.17594 10.937
head 11.2528 0.287508 2.79261
rclavicle 2.22639e-014 -4.29375e-014
rhumerus 55.3537 55.3703 -32.6602
rradius 122.879
rwrist -21.3847
rhand -9.53324 -53.3786
rfingers 7.12502
rthumb 16.4331 -82.7025
lclavicle 2.22639e-014 -4.29375e-014
lhumerus 45.2201 16.3238 68.6259
lradius 75.559
lwrist 71.7062
lhand -5.35715 3.00739
lfingers 7.12502
lthumb 20.4502 31.9504
rfemur -0.215998 23.0827 22.3041
rtibia 4.6024
rfoot -14.0606 -5.4486
rtoes -9.49129
lfemur 15.9817 -31.9235 -24.0334
ltibia -3.44885
lfoot -29.6273 51.5826
ltoes 16.433
228
root -0.537741 17.5893 8.04107 4.77638 -18.0623 -5.48364
lowerback -1.07539 -2.17985 5.17901
upperback -12.0781 -2.33002 4.7592
thorax -12.4704 -1.40346 2.54988
lowerneck -9.46694 1.01273 4.70114
upperneck 29.4205 -3.14059 10.9054
head 11.3148 0.299363 2.80364
rclavicle 7.91163e-014 6.36111e-015
rhumerus 55.1631 55.2981 -32.8175
rradius 122.838
rwrist -21.7066
rhand -9.54049 -53.4232
rfingers 7.12502
rthumb 16.4261 -82.7478
lclavicle 7.91163e-014 6.36111e-015
lhumerus 45.2522 16.3725 68.6615
lradius 75.1714
lwrist 71.8161
lhand -5.53563 3.11397
lfingers 7.12502
lthumb 20.2787 32.0753
rfemur -0.451504 23.2187 22.5131
rtibia 4.5295
rfoot -13.9468 -5.64178
rtoes -9.30454
lfemur 15.9823 -32.7686 -23.9358
ltibia -3.55639
lfoot -30.447 52.174
ltoes 16.9552
229
root -0.538625 17.5917 8.01737 4.98084 -18.0126 -5.61257
lowerback -0.946441 -2.22555 5.14659
upperback -12.0183 -2.38731 4.74207
thorax -12.4772 -1.42795 2.55767
lowerneck -9.50585 1.05847 4.70635
upperneck 29.5295 -3.06258 10.8073
head 11.359 0.329537 2.78009
rclavicle -7.55382e-014 0
rhumerus 54.9775 55.2634 -32.9907
rradius 122.787
rwrist -22.069
rhand -9.47739 -53.5063
rfingers 7.12502
rthumb 16.4869 -82.8258
lclavicle -7.55382e-014 0
lhumerus 45.2789 16.422 68.751
lradius 74.7745
lwrist 71.981
lhand -5.50318 3.18098
lfingers 7.12502
lthumb 20.3099 32.139
rfemur -0.728338 23.3365 22.5997
rtibia 4.53207
rfoot -13.8225 -5.76089
rtoes -9.02757
lfemur 15.8061 -33.1876 -23.7489
ltibia -3.6049
lfoot -30.7515 52.4765
ltoes 17.1417
230
root -0.540493 17.5958 7.99125 5.15304 -17.9639 -5.64545
lowerback -0.77971 -2.2642 5.0077
upperback -11.9648 -2.44229 4.67735
thorax -12.5096 -1.44327 2.57446
lowerneck -9.40453 1.10454 4.81791
upperneck 29.4713 -2.92585 10.5649
head 11.3027 0.36942 2.68287
rclavicle 4.25399e-014 -2.06736e-014
rhumerus 54.6751 55.2738 -33.2763
rradius 122.668
rwrist -22.4182
rhand -9.09287 -53.4887
rfingers 7.12502
rthumb 16.857 -82.777
lclavicle 4.25399e-014 -2.06736e-014
lhumerus 45.2182 16.4024 68.8965
lradius 74.4322
lwrist 72.0038
lhand -5.23195 3.23735
lfingers 7.12502
lthumb 20.5705 32.1675
rfemur -1.04805 23.446 22.5845
rtibia 4.59763
rfoot -13.6641 -5.87696
rtoes -8.7126
lfemur 15.4657 -33.279 -23.4793
ltibia -3.6042
lfoot -30.5328 52.5358
ltoes 17.0542
231
root -0.542855 17.5988 7.96423 5.29993 -17.8892 -5.66699
lowerback -0.570942 -2.27851 4.85379
upperback -11.8958 -2.46675 4.56622
thorax -12.5504 -1.44476 2.54706
lowerneck -9.39441 1.08007 4.95716
upperneck 29.4662 -2.91893 10.3358
head 11.2928 0.359859 2.57339
rclavicle 5.64548e-014 -1.11319e-014
rhumerus 54.1485 55.3256 -33.7701
rradius 122.473
rwrist -22.9214
rhand -8.41228 -53.8807
rfingers 7.12502
rthumb 17.5121 -83.1119
lclavicle 5.64548e-014 -1.11319e-014
lhumerus 45.102 16.2331 68.9403
lradius 73.979
lwrist 72.029
lhand -4.83828 3.20995
lfingers 7.12502
lthumb 20.9488 32.0987
rfemur -1.34234 23.5063 22.5689
rtibia 4.65181
rfoot -13.4343 -6.02977
rtoes -8.52594
lfemur 15.0994 -33.2542 -23.1562
ltibia -3.61299
lfoot -30.1362 52.4733
ltoes 17.0299
232
root -0.545652 17.6004 7.93473 5.3836 -17.7768 -5.72816
lowerback -0.289253 -1.96586 4.91336
upperback -11.6914 -2.0718 4.01233
thorax -12.5011 -1.29182 1.86696
lowerneck -9.72867 0.794578 5.6698
upperneck 29.0543 -3.41227 10.1685
head 11.221 0.185398 2.3169
rclavicle 4.33351e-014 -2.54444e-014
rhumerus 51.99 54.7517 -35.5107
rradius 122.151
rwrist -23.6765
rhand -7.89192 -54.3808
rfingers 7.12502
rthumb 18.0128 -83.5667
lclavicle 4.33351e-014 -2.54444e-014
lhumerus 45.6752 14.956 69.0858
lradius 73.1525
lwrist 72.1386
lhand -4.38244 3.20427
lfingers 7.12502
lthumb 21.3867 32.044
rfemur -1.55497 23.4834 22.6263
rtibia 4.701
rfoot -13.1812 -6.16283
rtoes -8.55017
lfemur 14.7874 -33.1582 -22.7786
ltibia -3.63384
lfoot -29.7543 52.2959
ltoes 17.0901
233
root -0.548863 17.5998 7.90117 5.45456 -17.6122 -5.85131
lowerback 0.00686714 -2.04235 4.83101
upperback -11.533 -2.16623 3.97817
thorax -12.4934 -1.32797 1.89003
lowerneck -9.66293 0.856614 5.53308
upperneck 28.8589 -3.23877 10.1175
head 11.122 0.231779 2.33495
rclavicle 6.10269e-014 1.19271e-014
rhumerus 51.5354 55.1212 -35.8953
rradius 121.752
rwrist -24.6036
rhand -7.68203 -54.4798
rfingers 7.12502
rthumb 18.2148 -83.6469
lclavicle 6.10269e-014 1.19271e-014
lhumerus 45.3487 14.8181 68.8843
lradius 72.2304
lwrist 72.1461
lhand -4.09756 3.23518
lfingers 7.12502
lthumb 21.6603 32.0436
rfemur -1.74722 23.4342 22.7734
rtibia 4.7747
rfoot -12.9834 -6.26545
rtoes -8.65063
lfemur 14.4401 -33.0064 -22.2912
ltibia -3.59098
lfoot -29.2928 52.0022
ltoes 16.9142
234
root -0.552252 17.5992 7.86297 5.52616 -17.4469 -5.94844
lowerback 0.315096 -2.16225 4.69757
upperback -11.3501 -2.3182 4.00587
thorax -12.4597 -1.38252 2.01483
lowerneck -9.63022 0.979004 5.38047
upperneck 28.6514 -2.91161 9.85348
head 11.0132 0.32325 2.29513
rclavicle -3.57812e-014 1.43125e-014
rhumerus 51.3573 55.7445 -36.0898
rradius 121.234
rwrist -25.4187
rhand -7.76908 -55.0554
rfingers 7.12502
rthumb 18.131 -84.2304
lclavicle -3.57812e-014 1.43125e-014
lhumerus 44.7559 14.7872 68.6095
lradius 71.2463
lwrist 72.1247
lhand -4.22747 3.29231
lfingers 7.12502
lthumb 21.5355 32.115
rfemur -1.95833 23.3796 22.8844
rtibia 4.835
rfoot -12.7815 -6.30833
rtoes -8.5358
lfemur 14.0058 -32.7766 -21.7696
ltibia -3.4812
lfoot -28.7106 51.6071
ltoes 16.6386
235
root -0.556477 17.6019 7.81911 5.52506 -17.3176 -5.95174
lowerback 0.511244 -2.49901 4.33619
upperback -10.7964 -2.77792 4.32452
thorax -11.8925 -1.5439 2.58222
lowerneck -9.87488 1.4897 5.25444
upperneck 27.9932 -1.90943 9.28853
head 10.7606 0.682547 2.20986
rclavicle 1.94809e-014 3.02153e-014
rhumerus 53.0808 56.4059 -34.7733
rradius 120.701
rwrist -26.6135
rhand -7.99278 -55.82
rfingers 7.12502
rthumb 17.9158 -85.0148
lclavicle 1.94809e-014 3.02153e-014
lhumerus 44.3039 15.6999 68.3919
lradius 70.1609
lwrist 72.1365
lhand -4.29754 3.4795
lfingers 7.12502
lthumb 21.4682 32.3099
rfemur -2.11396 23.4003 22.9155
rtibia 4.86273
rfoot -12.5493 -6.34794
rtoes -7.94084
lfemur 13.5434 -32.4 -21.3175
ltibia -3.32451
lfoot -27.9153 51.1692
ltoes 16.1136
